<svg id="visual" viewBox="0 0 960 540" preserveAspectRatio="none" xmlns="http://www.w3.org/2000/svg" xmlns:xlink="http://www.w3.org/1999/xlink" version="1.1"><rect x="0" y="0" width="960" height="540" fill="#19526a"></rect><defs><linearGradient id="grad1_0" x1="43.8%" y1="0%" x2="100%" y2="100%"><stop offset="14.444444444444446%" stop-color="#00b1cc" stop-opacity="1"></stop><stop offset="85.55555555555554%" stop-color="#00b1cc" stop-opacity="1"></stop></linearGradient></defs><defs><linearGradient id="grad1_1" x1="43.8%" y1="0%" x2="100%" y2="100%"><stop offset="14.444444444444446%" stop-color="#00b1cc" stop-opacity="1"></stop><stop offset="85.55555555555554%" stop-color="#0e98b4" stop-opacity="1"></stop></linearGradient></defs><defs><linearGradient id="grad1_2" x1="43.8%" y1="0%" x2="100%" y2="100%"><stop offset="14.444444444444446%" stop-color="#16809c" stop-opacity="1"></stop><stop offset="85.55555555555554%" stop-color="#0e98b4" stop-opacity="1"></stop></linearGradient></defs><defs><linearGradient id="grad1_3" x1="43.8%" y1="0%" x2="100%" y2="100%"><stop offset="14.444444444444446%" stop-color="#16809c" stop-opacity="1"></stop><stop offset="85.55555555555554%" stop-color="#196883" stop-opacity="1"></stop></linearGradient></defs><defs><linearGradient id="grad1_4" x1="43.8%" y1="0%" x2="100%" y2="100%"><stop offset="14.444444444444446%" stop-color="#19526a" stop-opacity="1"></stop><stop offset="85.55555555555554%" stop-color="#196883" stop-opacity="1"></stop></linearGradient></defs><defs><linearGradient id="grad2_0" x1="0%" y1="0%" x2="56.3%" y2="100%"><stop offset="14.444444444444446%" stop-color="#00b1cc" stop-opacity="1"></stop><stop offset="85.55555555555554%" stop-color="#00b1cc" stop-opacity="1"></stop></linearGradient></defs><defs><linearGradient id="grad2_1" x1="0%" y1="0%" x2="56.3%" y2="100%"><stop offset="14.444444444444446%" stop-color="#0e98b4" stop-opacity="1"></stop><stop offset="85.55555555555554%" stop-color="#00b1cc" stop-opacity="1"></stop></linearGradient></defs><defs><linearGradient id="grad2_2" x1="0%" y1="0%" x2="56.3%" y2="100%"><stop offset="14.444444444444446%" stop-color="#0e98b4" stop-opacity="1"></stop><stop offset="85.55555555555554%" stop-color="#16809c" stop-opacity="1"></stop></linearGradient></defs><defs><linearGradient id="grad2_3" x1="0%" y1="0%" x2="56.3%" y2="100%"><stop offset="14.444444444444446%" stop-color="#196883" stop-opacity="1"></stop><stop offset="85.55555555555554%" stop-color="#16809c" stop-opacity="1"></stop></linearGradient></defs><defs><linearGradient id="grad2_4" x1="0%" y1="0%" x2="56.3%" y2="100%"><stop offset="14.444444444444446%" stop-color="#196883" stop-opacity="1"></stop><stop offset="85.55555555555554%" stop-color="#19526a" stop-opacity="1"></stop></linearGradient></defs><g transform="translate(960, 0)"><path d="M0 351C-26.1 349.3 -52.2 347.5 -78.1 342.2C-104 336.9 -129.6 327.9 -151 313.5C-172.3 299.1 -189.4 279.3 -209.5 262.7C-229.6 246.1 -252.7 232.8 -267.4 213.2C-282.1 193.6 -288.3 167.7 -300 144.5C-311.7 121.3 -328.9 100.8 -338.3 77.2C-347.7 53.6 -349.4 26.8 -351 0L0 0Z" fill="#195d77"></path><path d="M0 280.8C-20.9 279.4 -41.8 278 -62.5 273.8C-83.2 269.5 -103.7 262.3 -120.8 250.8C-137.9 239.3 -151.5 223.4 -167.6 210.2C-183.7 196.9 -202.2 186.3 -213.9 170.6C-225.7 154.9 -230.7 134.1 -240 115.6C-249.4 97 -263.1 80.7 -270.6 61.8C-278.2 42.9 -279.5 21.4 -280.8 0L0 0Z" fill="#187490"></path><path d="M0 210.6C-15.7 209.6 -31.3 208.5 -46.9 205.3C-62.4 202.1 -77.8 196.8 -90.6 188.1C-103.4 179.5 -113.6 167.6 -125.7 157.6C-137.7 147.7 -151.6 139.7 -160.4 127.9C-169.2 116.2 -173 100.6 -180 86.7C-187 72.8 -197.3 60.5 -203 46.3C-208.6 32.2 -209.6 16.1 -210.6 0L0 0Z" fill="#138ca8"></path><path d="M0 140.4C-10.4 139.7 -20.9 139 -31.2 136.9C-41.6 134.7 -51.9 131.2 -60.4 125.4C-68.9 119.7 -75.8 111.7 -83.8 105.1C-91.8 98.4 -101.1 93.1 -107 85.3C-112.8 77.4 -115.3 67.1 -120 57.8C-124.7 48.5 -131.6 40.3 -135.3 30.9C-139.1 21.4 -139.7 10.7 -140.4 0L0 0Z" fill="#07a4c0"></path><path d="M0 70.2C-5.2 69.9 -10.4 69.5 -15.6 68.4C-20.8 67.4 -25.9 65.6 -30.2 62.7C-34.5 59.8 -37.9 55.9 -41.9 52.5C-45.9 49.2 -50.5 46.6 -53.5 42.6C-56.4 38.7 -57.7 33.5 -60 28.9C-62.3 24.3 -65.8 20.2 -67.7 15.4C-69.5 10.7 -69.9 5.4 -70.2 0L0 0Z" fill="#00b1cc"></path></g><g transform="translate(0, 540)"><path d="M0 -351C24.8 -341.4 49.6 -331.9 74.1 -324.7C98.6 -317.4 122.7 -312.5 146.7 -304.5C170.6 -296.6 194.5 -285.6 215.7 -270.5C236.9 -255.4 255.5 -236.1 269 -214.5C282.4 -192.8 290.8 -168.9 303.6 -146.2C316.4 -123.6 333.6 -102.3 342.2 -78.1C350.8 -54 350.9 -27 351 0L0 0Z" fill="#195d77"></path><path d="M0 -280.8C19.9 -273.2 39.7 -265.5 59.3 -259.7C78.8 -253.9 98.1 -250 117.3 -243.6C136.5 -237.3 155.6 -228.5 172.6 -216.4C189.5 -204.3 204.4 -188.9 215.2 -171.6C225.9 -154.3 232.7 -135.1 242.9 -117C253.1 -98.9 266.9 -81.8 273.8 -62.5C280.7 -43.2 280.7 -21.6 280.8 0L0 0Z" fill="#187490"></path><path d="M0 -210.6C14.9 -204.9 29.8 -199.1 44.5 -194.8C59.1 -190.4 73.6 -187.5 88 -182.7C102.4 -178 116.7 -171.4 129.4 -162.3C142.2 -153.2 153.3 -141.7 161.4 -128.7C169.5 -115.7 174.5 -101.3 182.2 -87.7C189.8 -74.1 200.1 -61.4 205.3 -46.9C210.5 -32.4 210.5 -16.2 210.6 0L0 0Z" fill="#138ca8"></path><path d="M0 -140.4C9.9 -136.6 19.9 -132.8 29.6 -129.9C39.4 -127 49.1 -125 58.7 -121.8C68.3 -118.6 77.8 -114.3 86.3 -108.2C94.8 -102.2 102.2 -94.4 107.6 -85.8C113 -77.1 116.3 -67.5 121.5 -58.5C126.6 -49.4 133.4 -40.9 136.9 -31.2C140.3 -21.6 140.4 -10.8 140.4 0L0 0Z" fill="#07a4c0"></path><path d="M0 -70.2C5 -68.3 9.9 -66.4 14.8 -64.9C19.7 -63.5 24.5 -62.5 29.3 -60.9C34.1 -59.3 38.9 -57.1 43.1 -54.1C47.4 -51.1 51.1 -47.2 53.8 -42.9C56.5 -38.6 58.2 -33.8 60.7 -29.2C63.3 -24.7 66.7 -20.5 68.4 -15.6C70.2 -10.8 70.2 -5.4 70.2 0L0 0Z" fill="#00b1cc"></path></g></svg>